<svg width="40" height="40" viewBox="0 0 40 40" fill="none" xmlns="http://www.w3.org/2000/svg">
<mask id="mask0_266_5333" style="mask-type:alpha" maskUnits="userSpaceOnUse" x="5" y="5" width="31" height="31">
<path d="M5.5 20.5C5.5 13.925 5.5 10.6376 7.31592 8.42485C7.64835 8.01978 8.01978 7.64835 8.42485 7.31592C10.6376 5.5 13.925 5.5 20.5 5.5C27.075 5.5 30.3624 5.5 32.5751 7.31592C32.9802 7.64835 33.3516 8.01978 33.6841 8.42485C35.5 10.6376 35.5 13.925 35.5 20.5C35.5 27.075 35.5 30.3624 33.6841 32.5751C33.3516 32.9802 32.9802 33.3516 32.5751 33.6841C30.3624 35.5 27.075 35.5 20.5 35.5C13.925 35.5 10.6376 35.5 8.42485 33.6841C8.01978 33.3516 7.64835 32.9802 7.31592 32.5751C5.5 30.3624 5.5 27.075 5.5 20.5Z" fill="black"/>
</mask>
<g mask="url(#mask0_266_5333)">
<path d="M21.9968 25.1467L7.68276 9.40123C7.35396 9.03954 6.88783 8.83334 6.39903 8.83334C4.2094 8.83334 2.56715 6.83012 2.99657 4.68301L3.66165 1.35761C4.00509 -0.359608 4.17682 -1.21822 4.60792 -1.871C5.05278 -2.54459 5.69102 -3.06783 6.43878 -3.37194C7.16343 -3.66666 8.03905 -3.66666 9.79028 -3.66666H29.7921C33.6526 -3.66666 35.5829 -3.66666 36.7604 -2.4586C37.9379 -1.25054 37.8884 0.679096 37.7895 4.53837V4.5384L37.1665 28.8333L30.7953 23.524C29.2457 22.2327 28.4709 21.587 27.6471 21.6611C27.4921 21.675 27.3392 21.707 27.1916 21.7563C26.4071 22.0188 25.9561 22.9208 25.054 24.7249C24.5413 25.7504 24.2849 26.2632 23.851 26.3798C23.7701 26.4016 23.6868 26.4131 23.603 26.4141C23.1537 26.4193 22.7681 25.9951 21.9968 25.1467Z" fill="#00A3F4" stroke="#0D1415" stroke-width="2" stroke-linecap="round"/>
</g>
<path d="M5.5 22.1667V20.5C5.5 13.925 5.5 10.6376 7.31592 8.42485C7.64835 8.01978 8.01978 7.64835 8.42485 7.31592C10.6376 5.5 13.925 5.5 20.5 5.5V5.5C27.075 5.5 30.3624 5.5 32.5751 7.31592C32.9802 7.64835 33.3516 8.01978 33.6841 8.42485C35.5 10.6376 35.5 13.925 35.5 20.5V20.5C35.5 27.075 35.5 30.3624 33.6841 32.5751C33.3516 32.9802 32.9802 33.3516 32.5751 33.6841C30.3624 35.5 27.075 35.5 20.5 35.5V35.5" stroke="#0D1415" stroke-width="2"/>
<circle cx="28" cy="13" r="2.5" fill="#0D1415"/>
<path d="M13.8335 27.1667V26.1667H14.8335V27.1667H13.8335ZM7.2071 35.2071C6.81657 35.5976 6.1834 35.5976 5.79288 35.2071C5.40236 34.8165 5.40237 34.1834 5.7929 33.7929L7.2071 35.2071ZM12.8335 35.5V27.1667H14.8335V35.5H12.8335ZM13.8335 28.1667H5.50016V26.1667H13.8335V28.1667ZM14.5406 27.8738L7.2071 35.2071L5.7929 33.7929L13.1264 26.4595L14.5406 27.8738Z" fill="#0D1415"/>
</svg>
