<svg width="34" height="24" viewBox="0 0 34 24" fill="none" xmlns="http://www.w3.org/2000/svg">
<g clip-path="url(#clip0_387_3874)">
<mask id="mask0_387_3874" style="mask-type:alpha" maskUnits="userSpaceOnUse" x="0" y="0" width="34" height="24">
<path d="M30.3289 0.0463867H3.23402C1.47354 0.0463867 0.0463867 1.47354 0.0463867 3.23402V20.766C0.0463867 22.5265 1.47354 23.9537 3.23402 23.9537H30.3289C32.0894 23.9537 33.5166 22.5265 33.5166 20.766V3.23402C33.5166 1.47354 32.0894 0.0463867 30.3289 0.0463867Z" fill="white"/>
</mask>
<g mask="url(#mask0_387_3874)">
<path d="M30.3289 0.0463867H3.23402C1.47354 0.0463867 0.0463867 1.47354 0.0463867 3.23402V20.766C0.0463867 22.5265 1.47354 23.9537 3.23402 23.9537H30.3289C32.0894 23.9537 33.5166 22.5265 33.5166 20.766V3.23402C33.5166 1.47354 32.0894 0.0463867 30.3289 0.0463867Z" fill="#0034A9"/>
<path fill-rule="evenodd" clip-rule="evenodd" d="M0.0463867 15.9846H33.5166V23.9537H0.0463867V15.9846Z" fill="#D7280F"/>
<path fill-rule="evenodd" clip-rule="evenodd" d="M0.0463867 0.0463867H33.5166V8.01548H0.0463867V0.0463867Z" fill="white"/>
<path d="M30.3289 0.843323H3.23399C1.91363 0.843323 0.843262 1.91369 0.843262 3.23405V20.7661C0.843262 22.0864 1.91363 23.1568 3.23399 23.1568H30.3289C31.6493 23.1568 32.7196 22.0864 32.7196 20.7661V3.23405C32.7196 1.91369 31.6493 0.843323 30.3289 0.843323Z" stroke="black" stroke-opacity="0.1" stroke-width="1.59382"/>
</g>
</g>
<defs>
<clipPath id="clip0_387_3874">
<rect width="33.4702" height="23.9073" fill="white" transform="translate(0.0463867 0.0463867)"/>
</clipPath>
</defs>
</svg>
